<svg xmlns="http://www.w3.org/2000/svg" viewBox="0 0 100 100" width="100" height="100">
  <!-- Circular background -->
  <circle cx="50" cy="50" r="50" fill="#2563eb"/>
  
  <!-- Shield shape -->
  <path d="M50 15 L70 25 L70 45 C70 65 60 75 50 85 C40 75 30 65 30 45 L30 25 Z" fill="#ffffff"/>
  
  <!-- Shield border -->
  <path d="M50 15 L70 25 L70 45 C70 65 60 75 50 85 C40 75 30 65 30 45 L30 25 Z" fill="none" stroke="#2563eb" stroke-width="2"/>
  
  <!-- PC/Computer icon inside shield -->
  <rect x="40" y="35" width="20" height="15" rx="2" fill="#2563eb"/>
  <rect x="42" y="37" width="16" height="11" rx="1" fill="#ffffff"/>
  <rect x="45" y="40" width="10" height="5" fill="#2563eb"/>
  
  <!-- Stand/base -->
  <rect x="47" y="50" width="6" height="3" fill="#2563eb"/>
  <rect x="46" y="53" width="8" height="2" fill="#2563eb"/>
</svg> 